<mxfile host="65bd71144e">
    <diagram id="dPa3eCRp1KqCvTpyh3m8" name="Page-1">
        <mxGraphModel dx="702" dy="435" grid="1" gridSize="10" guides="1" tooltips="1" connect="1" arrows="1" fold="1" page="1" pageScale="1" pageWidth="827" pageHeight="1169" background="#FFFFFF" math="0" shadow="0">
            <root>
                <mxCell id="0"/>
                <mxCell id="1" parent="0"/>
                <mxCell id="23" value="&lt;span style=&quot;font-size: 12px&quot;&gt;window load&lt;/span&gt;" style="edgeStyle=orthogonalEdgeStyle;rounded=0;orthogonalLoop=1;jettySize=auto;html=1;exitX=0.5;exitY=1;exitDx=0;exitDy=0;entryX=0.5;entryY=0;entryDx=0;entryDy=0;" parent="1" source="2" target="25" edge="1">
                    <mxGeometry relative="1" as="geometry">
                        <mxPoint x="475" y="80" as="targetPoint"/>
                    </mxGeometry>
                </mxCell>
                <mxCell id="2" value="" style="ellipse;fillColor=#000000;strokeColor=none;" parent="1" vertex="1">
                    <mxGeometry x="409" y="30" width="30" height="30" as="geometry"/>
                </mxCell>
                <mxCell id="25" value="startGame" style="swimlane;fontStyle=4;align=center;verticalAlign=top;childLayout=stackLayout;horizontal=1;startSize=30;horizontalStack=0;resizeParent=1;resizeParentMax=0;resizeLast=0;collapsible=0;marginBottom=0;html=1;rounded=1;absoluteArcSize=1;arcSize=25;" parent="1" vertex="1">
                    <mxGeometry x="289" y="240" width="270" height="150" as="geometry"/>
                </mxCell>
                <mxCell id="46" value="Nulstil point og liv" style="fillColor=none;strokeColor=none;align=left;verticalAlign=middle;spacingLeft=5;fontSize=11;" parent="25" vertex="1">
                    <mxGeometry y="30" width="270" height="20" as="geometry"/>
                </mxCell>
                <mxCell id="47" value="Skriv point og liv ud" style="fillColor=none;strokeColor=none;align=left;verticalAlign=middle;spacingLeft=5;fontSize=11;" parent="25" vertex="1">
                    <mxGeometry y="50" width="270" height="20" as="geometry"/>
                </mxCell>
                <mxCell id="49" value="Start timer-animation" style="fillColor=none;strokeColor=none;align=left;verticalAlign=middle;spacingLeft=5;fontSize=11;" parent="25" vertex="1">
                    <mxGeometry y="70" width="270" height="20" as="geometry"/>
                </mxCell>
                <mxCell id="50" value="Giv random position og random delay til elementer" style="fillColor=none;strokeColor=none;align=left;verticalAlign=middle;spacingLeft=5;fontSize=11;" parent="25" vertex="1">
                    <mxGeometry y="90" width="270" height="20" as="geometry"/>
                </mxCell>
                <mxCell id="52" value="Start hoppe-animation på CarlJohan" style="fillColor=none;strokeColor=none;align=left;verticalAlign=middle;spacingLeft=5;fontSize=11;" parent="25" vertex="1">
                    <mxGeometry y="110" width="270" height="20" as="geometry"/>
                </mxCell>
                <mxCell id="147" value="Start fald-animation på Fluesvamp" style="fillColor=none;strokeColor=none;align=left;verticalAlign=middle;spacingLeft=5;fontSize=11;" parent="25" vertex="1">
                    <mxGeometry y="130" width="270" height="20" as="geometry"/>
                </mxCell>
                <mxCell id="55" value="clickCarlJohan" style="swimlane;fontStyle=4;align=center;verticalAlign=top;childLayout=stackLayout;horizontal=1;startSize=30;horizontalStack=0;resizeParent=1;resizeParentMax=0;resizeLast=0;collapsible=0;marginBottom=0;html=1;rounded=1;absoluteArcSize=1;arcSize=25;" parent="1" vertex="1">
                    <mxGeometry x="19" y="440" width="190" height="130" as="geometry"/>
                </mxCell>
                <mxCell id="56" value="Tæl op på point" style="fillColor=none;strokeColor=none;align=left;verticalAlign=middle;spacingLeft=5;fontSize=11;" parent="55" vertex="1">
                    <mxGeometry y="30" width="190" height="20" as="geometry"/>
                </mxCell>
                <mxCell id="57" value="Skriv point ud" style="fillColor=none;strokeColor=none;align=left;verticalAlign=middle;spacingLeft=5;fontSize=11;" parent="55" vertex="1">
                    <mxGeometry y="50" width="190" height="20" as="geometry"/>
                </mxCell>
                <mxCell id="117" value="Afspil lyd (god svampelyd)" style="fillColor=none;strokeColor=none;align=left;verticalAlign=middle;spacingLeft=5;fontSize=11;" parent="55" vertex="1">
                    <mxGeometry y="70" width="190" height="20" as="geometry"/>
                </mxCell>
                <mxCell id="144" value="Stop hoppe-animation på container" style="fillColor=none;strokeColor=none;align=left;verticalAlign=middle;spacingLeft=5;fontSize=11;" parent="55" vertex="1">
                    <mxGeometry y="90" width="190" height="20" as="geometry"/>
                </mxCell>
                <mxCell id="145" value="Start forsvind-animation på sprite" style="fillColor=none;strokeColor=none;align=left;verticalAlign=middle;spacingLeft=5;fontSize=11;" parent="55" vertex="1">
                    <mxGeometry y="110" width="190" height="20" as="geometry"/>
                </mxCell>
                <mxCell id="68" value="resetCarlJohan" style="swimlane;fontStyle=4;align=center;verticalAlign=top;childLayout=stackLayout;horizontal=1;startSize=37;horizontalStack=0;resizeParent=1;resizeParentMax=0;resizeLast=0;collapsible=0;marginBottom=0;html=1;rounded=1;absoluteArcSize=1;arcSize=25;" parent="1" vertex="1">
                    <mxGeometry x="19" y="651" width="190" height="97" as="geometry"/>
                </mxCell>
                <mxCell id="69" value="Fjern klasser der ikke skal bruges" style="fillColor=none;strokeColor=none;align=left;verticalAlign=middle;spacingLeft=5;fontSize=11;" parent="68" vertex="1">
                    <mxGeometry y="37" width="190" height="20" as="geometry"/>
                </mxCell>
                <mxCell id="70" value="Giv svampen en ny random position" style="fillColor=none;strokeColor=none;align=left;verticalAlign=middle;spacingLeft=5;fontSize=11;" parent="68" vertex="1">
                    <mxGeometry y="57" width="190" height="20" as="geometry"/>
                </mxCell>
                <mxCell id="71" value="Genstart hoppeanimation" style="fillColor=none;strokeColor=none;align=left;verticalAlign=middle;spacingLeft=5;fontSize=11;" parent="68" vertex="1">
                    <mxGeometry y="77" width="190" height="20" as="geometry"/>
                </mxCell>
                <mxCell id="72" value="" style="edgeStyle=orthogonalEdgeStyle;rounded=0;orthogonalLoop=1;jettySize=auto;html=1;exitX=0.5;exitY=1;exitDx=0;exitDy=0;entryX=0.5;entryY=0;entryDx=0;entryDy=0;" parent="1" edge="1">
                    <mxGeometry x="-0.0123" y="-45" relative="1" as="geometry">
                        <mxPoint x="102" y="570" as="sourcePoint"/>
                        <mxPoint x="102" y="651" as="targetPoint"/>
                        <mxPoint as="offset"/>
                    </mxGeometry>
                </mxCell>
                <mxCell id="146" value="forsvind-animation færdig" style="edgeLabel;html=1;align=center;verticalAlign=middle;resizable=0;points=[];fontSize=11;" parent="72" vertex="1" connectable="0">
                    <mxGeometry x="-0.2654" relative="1" as="geometry">
                        <mxPoint x="3" y="10" as="offset"/>
                    </mxGeometry>
                </mxCell>
                <mxCell id="73" value="" style="edgeStyle=orthogonalEdgeStyle;rounded=0;orthogonalLoop=1;jettySize=auto;html=1;entryX=0.5;entryY=0;entryDx=0;entryDy=0;" parent="1" target="55" edge="1">
                    <mxGeometry x="0.3336" relative="1" as="geometry">
                        <mxPoint x="-1" as="offset"/>
                        <mxPoint x="290" y="337" as="sourcePoint"/>
                    </mxGeometry>
                </mxCell>
                <mxCell id="161" value="Klik på carljohan" style="edgeLabel;html=1;align=center;verticalAlign=middle;resizable=0;points=[];" parent="73" vertex="1" connectable="0">
                    <mxGeometry x="0.6525" y="3" relative="1" as="geometry">
                        <mxPoint y="-1" as="offset"/>
                    </mxGeometry>
                </mxCell>
                <mxCell id="75" value="clickFlueSvamp" style="swimlane;fontStyle=4;align=center;verticalAlign=top;childLayout=stackLayout;horizontal=1;startSize=30;horizontalStack=0;resizeParent=1;resizeParentMax=0;resizeLast=0;collapsible=0;marginBottom=0;html=1;rounded=1;absoluteArcSize=1;arcSize=25;" parent="1" vertex="1">
                    <mxGeometry x="618" y="450" width="190" height="130" as="geometry"/>
                </mxCell>
                <mxCell id="76" value="tæl ned på liv" style="fillColor=none;strokeColor=none;align=left;verticalAlign=middle;spacingLeft=5;fontSize=11;" parent="75" vertex="1">
                    <mxGeometry y="30" width="190" height="20" as="geometry"/>
                </mxCell>
                <mxCell id="77" value="Opdater antal liv på siden" style="fillColor=none;strokeColor=none;align=left;verticalAlign=middle;spacingLeft=5;fontSize=11;" parent="75" vertex="1">
                    <mxGeometry y="50" width="190" height="20" as="geometry"/>
                </mxCell>
                <mxCell id="118" value="Afspil lyd (dårlig svampelyd)" style="fillColor=none;strokeColor=none;align=left;verticalAlign=middle;spacingLeft=5;fontSize=11;" parent="75" vertex="1">
                    <mxGeometry y="70" width="190" height="20" as="geometry"/>
                </mxCell>
                <mxCell id="125" value="Stoppe fald-animation på container" style="fillColor=none;strokeColor=none;align=left;verticalAlign=middle;spacingLeft=5;fontSize=11;" parent="75" vertex="1">
                    <mxGeometry y="90" width="190" height="20" as="geometry"/>
                </mxCell>
                <mxCell id="126" value="Start forsvind-animation på sprite" style="fillColor=none;strokeColor=none;align=left;verticalAlign=middle;spacingLeft=5;fontSize=11;" parent="75" vertex="1">
                    <mxGeometry y="110" width="190" height="20" as="geometry"/>
                </mxCell>
                <mxCell id="79" value="resetFlueSvamp" style="swimlane;fontStyle=4;align=center;verticalAlign=top;childLayout=stackLayout;horizontal=1;startSize=37;horizontalStack=0;resizeParent=1;resizeParentMax=0;resizeLast=0;collapsible=0;marginBottom=0;html=1;rounded=1;absoluteArcSize=1;arcSize=25;" parent="1" vertex="1">
                    <mxGeometry x="618" y="651" width="190" height="97" as="geometry"/>
                </mxCell>
                <mxCell id="80" value="Fjern klasser der ikke skal bruges" style="fillColor=none;strokeColor=none;align=left;verticalAlign=middle;spacingLeft=5;fontSize=11;" parent="79" vertex="1">
                    <mxGeometry y="37" width="190" height="20" as="geometry"/>
                </mxCell>
                <mxCell id="82" value="Giv svamp en ny random position" style="fillColor=none;strokeColor=none;align=left;verticalAlign=middle;spacingLeft=5;fontSize=11;" parent="79" vertex="1">
                    <mxGeometry y="57" width="190" height="20" as="geometry"/>
                </mxCell>
                <mxCell id="133" value="Genstart faldeanimation" style="fillColor=none;strokeColor=none;align=left;verticalAlign=middle;spacingLeft=5;fontSize=11;" parent="79" vertex="1">
                    <mxGeometry y="77" width="190" height="20" as="geometry"/>
                </mxCell>
                <mxCell id="83" value="Forsvind-animation færdig" style="edgeStyle=orthogonalEdgeStyle;rounded=0;orthogonalLoop=1;jettySize=auto;html=1;entryX=0.5;entryY=0;entryDx=0;entryDy=0;exitX=0.5;exitY=1;exitDx=0;exitDy=0;" parent="1" source="126" target="79" edge="1">
                    <mxGeometry relative="1" as="geometry">
                        <mxPoint x="735" y="590" as="sourcePoint"/>
                    </mxGeometry>
                </mxCell>
                <mxCell id="127" style="edgeStyle=orthogonalEdgeStyle;html=1;entryX=1;entryY=0.75;entryDx=0;entryDy=0;fontSize=11;rounded=0;exitX=0.25;exitY=1;exitDx=0;exitDy=0;" parent="1" source="147" target="69" edge="1">
                    <mxGeometry relative="1" as="geometry">
                        <Array as="points">
                            <mxPoint x="357" y="703"/>
                        </Array>
                        <mxPoint x="430" y="410" as="sourcePoint"/>
                    </mxGeometry>
                </mxCell>
                <mxCell id="128" value="Hoppe-animation på &lt;br&gt;carljohan&lt;br&gt;har kørt 1 gang" style="edgeLabel;html=1;align=center;verticalAlign=middle;resizable=0;points=[];fontSize=11;" parent="127" vertex="1" connectable="0">
                    <mxGeometry x="0.6026" relative="1" as="geometry">
                        <mxPoint x="50" y="-103" as="offset"/>
                    </mxGeometry>
                </mxCell>
                <mxCell id="130" style="edgeStyle=orthogonalEdgeStyle;html=1;entryX=0;entryY=0.75;entryDx=0;entryDy=0;fontSize=11;rounded=0;exitX=0.75;exitY=1;exitDx=0;exitDy=0;" parent="1" source="147" target="80" edge="1">
                    <mxGeometry relative="1" as="geometry">
                        <Array as="points">
                            <mxPoint x="492" y="703"/>
                        </Array>
                        <mxPoint x="470" y="410" as="sourcePoint"/>
                    </mxGeometry>
                </mxCell>
                <mxCell id="131" value="Fald-animation på &lt;br&gt;fluesvamp&lt;br&gt;&amp;nbsp;har kørt 1 gang" style="edgeLabel;html=1;align=center;verticalAlign=middle;resizable=0;points=[];fontSize=11;" parent="130" vertex="1" connectable="0">
                    <mxGeometry x="0.4093" y="-1" relative="1" as="geometry">
                        <mxPoint x="-1" y="-100" as="offset"/>
                    </mxGeometry>
                </mxCell>
                <mxCell id="142" style="edgeStyle=orthogonalEdgeStyle;rounded=0;html=1;exitX=1;exitY=0.25;exitDx=0;exitDy=0;entryX=0.5;entryY=0;entryDx=0;entryDy=0;fontSize=11;" parent="1" source="49" target="75" edge="1">
                    <mxGeometry relative="1" as="geometry"/>
                </mxCell>
                <mxCell id="143" value="Klik på fluesvamp" style="edgeLabel;html=1;align=center;verticalAlign=middle;resizable=0;points=[];fontSize=11;" parent="142" vertex="1" connectable="0">
                    <mxGeometry x="0.3382" relative="1" as="geometry">
                        <mxPoint y="30" as="offset"/>
                    </mxGeometry>
                </mxCell>
            </root>
        </mxGraphModel>
    </diagram>
</mxfile>